<?xml version="1.0" encoding="UTF-8"?>
<!DOCTYPE svg PUBLIC "-//W3C//DTD SVG 1.1//EN" "http://www.w3.org/Graphics/SVG/1.1/DTD/svg11.dtd">
<svg xmlns="http://www.w3.org/2000/svg" version="1.1" width="859px" height="958px" style="shape-rendering:geometricPrecision; text-rendering:geometricPrecision; image-rendering:optimizeQuality; fill-rule:evenodd; clip-rule:evenodd" xmlns:xlink="http://www.w3.org/1999/xlink">
<g><path style="opacity:1" fill="#fefefe" d="M -0.5,-0.5 C 285.833,-0.5 572.167,-0.5 858.5,-0.5C 858.5,17.1667 858.5,34.8333 858.5,52.5C 858.159,49.4382 856.492,47.2716 853.5,46C 820.724,47.4639 788.057,46.1305 755.5,42C 750.864,41.1214 746.531,39.4548 742.5,37C 733.101,28.4502 723.434,20.1169 713.5,12C 675.504,1.82685 638.171,3.82685 601.5,18C 586.039,25.1262 572.539,34.9596 561,47.5C 551.253,60.6417 541.253,73.6417 531,86.5C 520.33,106.84 514.33,128.506 513,151.5C 512.078,164.557 512.411,177.557 514,190.5C 517.418,198.582 522.918,204.748 530.5,209C 541.442,212.457 552.442,215.79 563.5,219C 569.79,222.956 575.124,227.956 579.5,234C 591.021,242.047 603.688,244.713 617.5,242C 624.699,238.449 628.532,232.616 629,224.5C 630.203,215.442 628.869,206.775 625,198.5C 610.6,174.505 603.267,148.505 603,120.5C 601.264,115.068 599.597,109.735 598,104.5C 601.764,109.927 605.097,115.593 608,121.5C 609.275,137.427 611.941,153.094 616,168.5C 620.239,177.984 625.239,186.984 631,195.5C 639.007,209.25 640.34,223.584 635,238.5C 632.099,244.545 627.265,248.045 620.5,249C 599.834,252.116 582.834,245.783 569.5,230C 559.914,223.36 549.248,219.693 537.5,219C 525.058,215.932 516.558,208.432 512,196.5C 510.886,253.648 495.219,306.315 465,354.5C 440.012,396.167 408.512,432.334 370.5,463C 307.842,522.84 258.342,592.007 222,670.5C 221.663,676.539 220.997,682.539 220,688.5C 196.272,717.847 184.772,751.514 185.5,789.5C 184.9,815.586 190.4,840.253 202,863.5C 205.754,869.342 209.754,875.009 214,880.5C 221.096,887.597 229.262,893.097 238.5,897C 244.833,897.667 251.167,897.667 257.5,897C 267.067,894.185 272.4,887.851 273.5,878C 270.197,863.572 267.364,849.072 265,834.5C 261.709,763.008 276.709,695.674 310,632.5C 329.933,598.231 356.433,570.064 389.5,548C 410.167,536 430.833,524 451.5,512C 460.559,504.236 468.225,495.236 474.5,485C 482.356,478.153 491.023,472.487 500.5,468C 510.495,459.603 515.495,448.77 515.5,435.5C 513.072,422.193 510.572,408.859 508,395.5C 506.608,380.295 510.108,366.295 518.5,353.5C 521.86,349.307 525.027,344.974 528,340.5C 528.171,322.477 528.838,304.477 530,286.5C 530.749,278.171 532.749,270.171 536,262.5C 541.075,259.653 545.908,260.153 550.5,264C 557.5,270 564.5,276 571.5,282C 579.596,291.264 588.263,300.097 597.5,308.5C 605.083,295.666 612.916,282.999 621,270.5C 627.712,263.099 632.045,264.432 634,274.5C 635.599,286.461 636.766,298.461 637.5,310.5C 652.487,312.333 666.154,317.5 678.5,326C 680.667,328.167 682.833,330.333 685,332.5C 687.79,338.843 690.457,345.176 693,351.5C 698.247,358.043 705.081,361.876 713.5,363C 714.122,364.569 714.456,366.236 714.5,368C 712.586,374.354 711.086,380.854 710,387.5C 706.864,396.973 701.364,404.806 693.5,411C 684.833,416 676.167,421 667.5,426C 661.988,433.192 658.822,441.359 658,450.5C 657.333,460.833 657.333,471.167 658,481.5C 662.018,500.905 666.351,520.238 671,539.5C 673.339,559.118 671.005,578.118 664,596.5C 653.591,617.548 641.591,637.548 628,656.5C 622.333,666.5 616.667,676.5 611,686.5C 603.715,701.355 598.215,716.855 594.5,733C 619.684,781.233 639.518,831.733 654,884.5C 657.669,899.513 661.335,914.513 665,929.5C 670.201,940.69 679.034,946.19 691.5,946C 717.519,946.854 743.519,946.521 769.5,945C 779.758,940.943 783.591,933.443 781,922.5C 776.737,912.244 770.237,903.744 761.5,897C 752.477,891.822 743.143,887.155 733.5,883C 726.638,878.453 721.805,872.287 719,864.5C 716.73,859.356 715.063,854.022 714,848.5C 712.877,819.161 711.544,789.827 710,760.5C 704.552,726.027 701.886,691.36 702,656.5C 703.815,637.942 706.815,619.609 711,601.5C 718.43,577.05 725.93,552.716 733.5,528.5C 734.924,526.485 735.59,524.152 735.5,521.5C 739.6,502.502 743.767,483.502 748,464.5C 750.796,429.674 749.463,395.007 744,360.5C 738.194,325.663 731.527,290.996 724,256.5C 721.274,215.437 738.107,185.603 774.5,167C 788.268,161.95 801.935,156.617 815.5,151C 822.279,146.718 828.612,141.884 834.5,136.5C 835.289,136.217 835.956,135.717 836.5,135C 834.574,134.578 833.574,133.411 833.5,131.5C 835.742,130.352 838.076,129.352 840.5,128.5C 850.172,114.17 856.172,98.5029 858.5,81.5C 858.5,373.5 858.5,665.5 858.5,957.5C 572.167,957.5 285.833,957.5 -0.5,957.5C -0.5,638.167 -0.5,318.833 -0.5,-0.5 Z"/></g>
<g><path style="opacity:1" fill="#010101" d="M 858.5,52.5 C 858.5,54.5 858.5,56.5 858.5,58.5C 854.397,59.2309 850.897,58.2309 848,55.5C 848.433,61.7522 851.933,64.7522 858.5,64.5C 858.5,70.1667 858.5,75.8333 858.5,81.5C 856.172,98.5029 850.172,114.17 840.5,128.5C 838.076,129.352 835.742,130.352 833.5,131.5C 824.666,134.833 815.666,137.667 806.5,140C 797.745,140.577 789.078,140.243 780.5,139C 776.466,141.363 774.632,144.863 775,149.5C 777.408,147.044 780.241,145.211 783.5,144C 801.009,145.954 817.675,143.121 833.5,135.5C 834.107,135.624 834.44,135.957 834.5,136.5C 828.612,141.884 822.279,146.718 815.5,151C 801.935,156.617 788.268,161.95 774.5,167C 738.107,185.603 721.274,215.437 724,256.5C 731.527,290.996 738.194,325.663 744,360.5C 749.463,395.007 750.796,429.674 748,464.5C 743.767,483.502 739.6,502.502 735.5,521.5C 734.076,523.515 733.41,525.848 733.5,528.5C 725.93,552.716 718.43,577.05 711,601.5C 706.815,619.609 703.815,637.942 702,656.5C 701.886,691.36 704.552,726.027 710,760.5C 711.544,789.827 712.877,819.161 714,848.5C 715.063,854.022 716.73,859.356 719,864.5C 721.805,872.287 726.638,878.453 733.5,883C 743.143,887.155 752.477,891.822 761.5,897C 770.237,903.744 776.737,912.244 781,922.5C 783.591,933.443 779.758,940.943 769.5,945C 743.519,946.521 717.519,946.854 691.5,946C 679.034,946.19 670.201,940.69 665,929.5C 661.335,914.513 657.669,899.513 654,884.5C 639.518,831.733 619.684,781.233 594.5,733C 598.215,716.855 603.715,701.355 611,686.5C 616.667,676.5 622.333,666.5 628,656.5C 641.591,637.548 653.591,617.548 664,596.5C 671.005,578.118 673.339,559.118 671,539.5C 666.351,520.238 662.018,500.905 658,481.5C 657.333,471.167 657.333,460.833 658,450.5C 658.822,441.359 661.988,433.192 667.5,426C 676.167,421 684.833,416 693.5,411C 701.364,404.806 706.864,396.973 710,387.5C 711.086,380.854 712.586,374.354 714.5,368C 714.456,366.236 714.122,364.569 713.5,363C 705.081,361.876 698.247,358.043 693,351.5C 690.457,345.176 687.79,338.843 685,332.5C 682.833,330.333 680.667,328.167 678.5,326C 666.154,317.5 652.487,312.333 637.5,310.5C 636.766,298.461 635.599,286.461 634,274.5C 632.045,264.432 627.712,263.099 621,270.5C 612.916,282.999 605.083,295.666 597.5,308.5C 588.263,300.097 579.596,291.264 571.5,282C 564.5,276 557.5,270 550.5,264C 545.908,260.153 541.075,259.653 536,262.5C 532.749,270.171 530.749,278.171 530,286.5C 528.838,304.477 528.171,322.477 528,340.5C 525.027,344.974 521.86,349.307 518.5,353.5C 510.108,366.295 506.608,380.295 508,395.5C 510.572,408.859 513.072,422.193 515.5,435.5C 515.495,448.77 510.495,459.603 500.5,468C 491.023,472.487 482.356,478.153 474.5,485C 468.225,495.236 460.559,504.236 451.5,512C 430.833,524 410.167,536 389.5,548C 356.433,570.064 329.933,598.231 310,632.5C 276.709,695.674 261.709,763.008 265,834.5C 267.364,849.072 270.197,863.572 273.5,878C 272.4,887.851 267.067,894.185 257.5,897C 251.167,897.667 244.833,897.667 238.5,897C 229.262,893.097 221.096,887.597 214,880.5C 209.754,875.009 205.754,869.342 202,863.5C 190.4,840.253 184.9,815.586 185.5,789.5C 184.772,751.514 196.272,717.847 220,688.5C 220.997,682.539 221.663,676.539 222,670.5C 258.342,592.007 307.842,522.84 370.5,463C 408.512,432.334 440.012,396.167 465,354.5C 495.219,306.315 510.886,253.648 512,196.5C 516.558,208.432 525.058,215.932 537.5,219C 549.248,219.693 559.914,223.36 569.5,230C 582.834,245.783 599.834,252.116 620.5,249C 627.265,248.045 632.099,244.545 635,238.5C 640.34,223.584 639.007,209.25 631,195.5C 625.239,186.984 620.239,177.984 616,168.5C 611.941,153.094 609.275,137.427 608,121.5C 605.097,115.593 601.764,109.927 598,104.5C 599.597,109.735 601.264,115.068 603,120.5C 603.267,148.505 610.6,174.505 625,198.5C 628.869,206.775 630.203,215.442 629,224.5C 628.532,232.616 624.699,238.449 617.5,242C 603.688,244.713 591.021,242.047 579.5,234C 575.124,227.956 569.79,222.956 563.5,219C 552.442,215.79 541.442,212.457 530.5,209C 522.918,204.748 517.418,198.582 514,190.5C 512.411,177.557 512.078,164.557 513,151.5C 514.33,128.506 520.33,106.84 531,86.5C 541.253,73.6417 551.253,60.6417 561,47.5C 572.539,34.9596 586.039,25.1262 601.5,18C 638.171,3.82685 675.504,1.82685 713.5,12C 723.434,20.1169 733.101,28.4502 742.5,37C 746.531,39.4548 750.864,41.1214 755.5,42C 788.057,46.1305 820.724,47.4639 853.5,46C 856.492,47.2716 858.159,49.4382 858.5,52.5 Z"/></g>
<g><path style="opacity:1" fill="#f0f0f0" d="M 722.5,44.5 C 729.298,44.8953 733.965,48.2286 736.5,54.5C 730.284,63.1094 721.951,67.1094 711.5,66.5C 713.628,61.6152 715.462,56.6152 717,51.5C 717.938,48.4025 719.772,46.0691 722.5,44.5 Z"/></g>
<g><path style="opacity:1" fill="#e6e6e6" d="M 858.5,58.5 C 858.5,60.5 858.5,62.5 858.5,64.5C 851.933,64.7522 848.433,61.7522 848,55.5C 850.897,58.2309 854.397,59.2309 858.5,58.5 Z"/></g>
<g><path style="opacity:1" fill="#e4e4e4" d="M 833.5,131.5 C 833.574,133.411 834.574,134.578 836.5,135C 835.956,135.717 835.289,136.217 834.5,136.5C 834.44,135.957 834.107,135.624 833.5,135.5C 817.675,143.121 801.009,145.954 783.5,144C 780.241,145.211 777.408,147.044 775,149.5C 774.632,144.863 776.466,141.363 780.5,139C 789.078,140.243 797.745,140.577 806.5,140C 815.666,137.667 824.666,134.833 833.5,131.5 Z"/></g>
<g><path style="opacity:1" fill="#9a9a9a" d="M 735.5,521.5 C 735.59,524.152 734.924,526.485 733.5,528.5C 733.41,525.848 734.076,523.515 735.5,521.5 Z"/></g>
<g><path style="opacity:1" fill="#020202" d="M 137.5,918.5 C 135.162,916.96 132.495,916.294 129.5,916.5C 77.4035,907.201 40.2369,878.534 18,830.5C 4.63094,797.802 0.964276,764.135 7,729.5C 23.5934,769.088 50.4267,799.588 87.5,821C 102.435,830.59 118.768,835.423 136.5,835.5C 139.034,867.124 150.7,894.79 171.5,918.5C 160.179,919.368 148.846,919.368 137.5,918.5 Z"/></g>
<g><path style="opacity:1" fill="#070707" d="M 524.5,871.5 C 528.848,888.404 533.348,905.404 538,922.5C 541.166,933.028 547.333,941.195 556.5,947C 538.861,951.641 521.195,951.641 503.5,947C 513.21,940.629 515.043,932.463 509,922.5C 505.749,918.578 501.916,915.412 497.5,913C 508.297,900.363 517.297,886.529 524.5,871.5 Z"/></g>
<g><path style="opacity:1" fill="#8d8d8d" d="M 129.5,916.5 C 132.495,916.294 135.162,916.96 137.5,918.5C 134.572,918.435 131.905,917.768 129.5,916.5 Z"/></g>
</svg>